{"title":"Side Effects 2013 BRRip 480p x264 AAC - VYTO [P2PDL]","uid":8458193,"size":324938461,"categoryP":"video","categoryS":"movies","magnet":"?xt=urn:btih:a8d2295e627613c5b6a178f1d455341afd69af3e&amp;dn=Side+Effects+2013+BRRip+480p+x264+AAC+-+VYTO+%5BP2PDL%5D&amp;tr=udp%3A%2F%2Ftracker.openbittorrent.com%3A80&amp;tr=udp%3A%2F%2Fopen.demonii.com%3A1337&amp;tr=udp%3A%2F%2Ftracker.coppersurfer.tk%3A6969&amp;tr=udp%3A%2F%2Fexodus.desync.com%3A6969","seeders":0,"leechers":0,"uploader":"ValidusVyto","files":-1,"time":1368154847,"description":"_________________________  Visit us at _________________________\n  &lt;a href=&quot;\nhttp://p2pdl.com&quot; rel=&quot;nofollow&quot; target=&quot;_NEW&quot;&gt;\nhttp://p2pdl.com&lt;/a&gt;  ____________________________ &lt;a href=&quot; http://p2pdl.com&quot; rel=&quot;nofollow&quot; target=&quot;_NEW&quot;&gt; http://p2pdl.com&lt;/a&gt;\n\n\nSide Effect 2013 BRRip 480p x264 AAC - VYTO\n\n\nGenre: Crime | Drama | Thriller\nPlot: A young woman's world unravels when a drug prescribed by her psychiatrist has unexpected side\neffects.  \nDirector: Steven Soderbergh\nStars:  Rooney Mara, Channing Tatum, Jude Law.\nRated: R for sexuality, nudity, violence and language.\n\n\nInfo: &lt;a href=&quot;\nhttp://www.imdb.com/title/tt2053463/&quot; rel=&quot;nofollow&quot; target=&quot;_NEW&quot;&gt;\nhttp://www.imdb.com/title/tt2053463/&lt;/a&gt;\n\nTrailer:\n\n\nFormat                         : MPEG-4\nFile size                      : 306 MiB\nDuration                       : 1h 46mn\nOverall bit rate               : 402 Kbps\nSource:                        : 720p.BluRay.x264-SPARKS(Thanks)\n\nVideo\nFormat                         : AVC\nBit rate                       : 358 Kbps\nWidth                          : 720 pixels\nHeight                         : 384 pixels\nDisplay aspect ratio           : 1.85:1\nFrame rate mode                : Constant\nFrame rate                     : 23.976 fps\nStream size                    : 272 MiB (89%)\nWriting library                : x264 core 130 r2273\n\nAudio\nFormat                         : AAC\nBit rate mode                  : Variable\nBit rate                       : 40.0 Kbps\nChannel(s)                     : 2 channels\nChannel positions              : Front: L R\nSampling rate                  : 44.1 KHz\nStream size                    : 30.4 MiB (10%)\nLanguage                       : English\n\nSubtitle                       : Yes (English)\n\n &lt;a href=&quot;\nhttp://www.ultraimg.com/images/G4R1p.png&quot; rel=&quot;nofollow&quot; target=&quot;_NEW&quot;&gt;\nhttp://www.ultraimg.com/images/G4R1p.png&lt;/a&gt; &lt;a href=&quot;\nhttp://www.ultraimg.com/images/KhCaS.png&quot; rel=&quot;nofollow&quot; target=&quot;_NEW&quot;&gt;\nhttp://www.ultraimg.com/images/KhCaS.png&lt;/a&gt; &lt;a href=&quot;\nhttp://www.ultraimg.com/images/uXYo0.png&quot; rel=&quot;nofollow&quot; target=&quot;_NEW&quot;&gt;\nhttp://www.ultraimg.com/images/uXYo0.png&lt;/a&gt; &lt;a href=&quot;\nhttp://www.ultraimg.com/images/RZQDw.png&quot; rel=&quot;nofollow&quot; target=&quot;_NEW&quot;&gt;\nhttp://www.ultraimg.com/images/RZQDw.png&lt;/a&gt; &lt;a href=&quot;\nhttp://www.ultraimg.com/images/0VDZ9.png&quot; rel=&quot;nofollow&quot; target=&quot;_NEW&quot;&gt;\nhttp://www.ultraimg.com/images/0VDZ9.png&lt;/a&gt; &lt;a href=&quot;\nhttp://www.ultraimg.com/images/UYChc.png&quot; rel=&quot;nofollow&quot; target=&quot;_NEW&quot;&gt;\nhttp://www.ultraimg.com/images/UYChc.png&lt;/a&gt;\n\n\n----------------------------------------------------------------------------------------------------\n\n\nEncoded using revolutionary 10bit encoding, which enables us to provide you more crispier \nand sharper images at small sizes, just make sure you follow our instructions without a fault.\nRecommend to you to use latest version of VLC player. Install K-Lite Codec Pack or shark007 codecs\nin case of any kind of problem in playback (For non-VLC Media Player users). Alternatively, install\nCore AVC codecs, the fastest decoder that there is coupled with Community Center Codec Pack and play\non Windows Media Player Classic. Check sample to be sure.\nEnjoy!\n\nEncoder Notes:Looking For Early Access To Anything You Can Provide DVDScr, R5, DVDR, BluRay, Direct\nAudio, Music Releases and Seedboxes. We require dedicated servers, so as to do more \nand fast releases of movies.\nIf You Got anything to offer please contact us at &quot;&lt;a class=&quot;__cf_email__&quot; href=&quot;/cdn-cgi/l/email-protection&quot; data-cfemail=&quot;7101031631190402195f121e1c&quot;&gt;[email&amp;#160;protected]&lt;/a&gt;&lt;script data-cfhash='f9e31' type=&quot;text/javascript&quot;&gt;\n/* &lt;![CDATA[ */!function(){try{var t=&quot;currentScript&quot;in document?document.currentScript:function(){for(var t=document.getElementsByTagName(&quot;script&quot;),e=t.length;e--;)if(t[e].getAttribute(&quot;data-cfhash&quot;))return t[e]}();if(t&amp;&amp;t.previousSibling){var e,r,n,i,c=t.previousSibling,a=c.getAttribute(&quot;data-cfemail&quot;);if(a){for(e=&quot;&quot;,r=parseInt(a.substr(0,2),16),n=2;a.length-n;n+=2)i=parseInt(a.substr(n,2),16)^r,e+=String.fromCharCode(i);e=document.createTextNode(e),c.parentNode.replaceChild(e,c)}t.parentNode.removeChild(t);}}catch(u){}}()/* ]]&gt; */&lt;/script&gt;&quot;.\n\nFace book Fan Page:   &lt;a href=&quot;\nhttp://www.fb.me/p2pdl&quot; rel=&quot;nofollow&quot; target=&quot;_NEW&quot;&gt;\nhttp://www.fb.me/p2pdl&lt;/a&gt;","torrent":{"xt":"urn:btih:a8d2295e627613c5b6a178f1d455341afd69af3e","amp;dn":"Side+Effects+2013+BRRip+480p+x264+AAC+-+VYTO+%5BP2PDL%5D","amp;tr":["udp%3A%2F%2Ftracker.openbittorrent.com%3A80","udp%3A%2F%2Fopen.demonii.com%3A1337","udp%3A%2F%2Ftracker.coppersurfer.tk%3A6969","udp%3A%2F%2Fexodus.desync.com%3A6969"],"infoHash":"a8d2295e627613c5b6a178f1d455341afd69af3e","infoHashBuffer":{"type":"Buffer","data":[168,210,41,94,98,118,19,197,182,161,120,241,212,85,52,26,253,105,175,62]},"announce":[],"urlList":[]}}